# AST/ASF file generated using VICON BodyLanguage
# -----------------------------------------------
:version 1.10
:name VICON
:units
  mass 1.0
  length 0.45
  angle deg
:documentation
   .ast/.asf automatically generated from VICON data using
   VICON BodyBuilder and BodyLanguage model FoxedUp or BRILLIANT.MOD
:root
   order TX TY TZ RX RY RZ
   axis XYZ
   position 0 0 0  
   orientation 0 -0 0 
:bonedata
  begin
     id 1 
     name lhipjoint
     direction 0.432694 -0.693742 0.575759 
     length 2.19277 
     axis 0 -0 0  XYZ
  end
  begin
     id 2 
     name lfemur
     direction 0.34202 -0.939693 0  
     length 6.69022  
     axis 0 -0 20  XYZ
    dof rx ry rz
    limits (-160.0 20.0)
           (-70.0 70.0)
           (-60.0 70.0)
  end
  begin
     id 3 
     name ltibia
     direction 0.34202 -0.939693 0   
     length 6.50337   
     axis 0 -0 20   XYZ
    dof rx
    limits (-10.0 170.0)
  end
  begin
     id 4 
     name lfoot
     direction 0.158999 -0.435969 0.885805   
     length 2.70564   
     axis -90 -1.13533e-015 20   XYZ
    dof rx rz
    limits (-45.0 90.0)
           (-70.0 20.0)
  end
  begin
     id 5 
     name ltoes
     direction -0.00592919 0.00964381 0.999936   
     length 1.29929   
     axis -90 -1.13533e-015 20   XYZ
    dof rx
    limits (-90.0 20.0)
  end
  begin
     id 6 
     name rhipjoint
     direction -0.414359 -0.700339 0.581234   
     length 2.17212  
     axis 0 -0 0  XYZ 
  end
  begin
     id 7 
     name rfemur
     direction -0.34202 -0.939693 0   
     length 7.17659   
     axis 0 -0 -20   XYZ
    dof rx ry rz
    limits (-160.0 20.0)
           (-70.0 70.0)
           (-70.0 60.0)
  end
  begin
     id 8 
     name rtibia
     direction -0.34202 -0.939693 0   
     length 6.36669   
     axis 0 -0 -20   XYZ
    dof rx
    limits (-10.0 170.0)
 end
 begin
     id 9 
     name rfoot
     direction -0.137064 -0.37658 0.916188   
     length 2.22351  
     axis -90 1.13533e-015 -20   XYZ
    dof rx rz
    limits (-45.0 90.0)
           (-20.0 70.0)
  end
  begin
     id 10 
     name rtoes
     direction -0.000784077 -0.00289101 0.999996   
     length 1.09522   
     axis -90 1.13533e-015 -20   XYZ
    dof rx
    limits (-90.0 20.0)
  end
  begin
     id 11 
     name lowerback
     direction -0.0176242 0.984912 -0.172157   
     length 1.65301   
     axis 0 -0 0   XYZ
    dof rx ry rz
    limits (-20.0 45.0)
           (-30.0 30.0)
           (-30.0 30.0)
  end
  begin
     id 12 
     name upperback
     direction -0.00218128 0.998776 -0.0494072   
     length 1.67776   
     axis 0 -0 0   XYZ
    dof rx ry rz
    limits (-20.0 45.0)
           (-30.0 30.0)
           (-30.0 30.0)
  end
  begin
     id 13 
     name thorax
     direction 0.00544186 0.999658 0.0255711   
     length 1.72293   
     axis 0 -0 0   XYZ
    dof rx ry rz
    limits (-20.0 45.0)
           (-30.0 30.0)
           (-30.0 30.0)
  end
  begin
     id 14 
     name lowerneck
     direction -0.105325 0.983841 0.144785   
     length 2.14226   
     axis 0 -0 0   XYZ
    dof rx ry rz
    limits (-20.0 45.0)
           (-30.0 30.0)
           (-30.0 30.0)
  end
  begin
     id 15 
     name upperneck
     direction 0.0547957 0.988053 -0.144041   
     length 2.17508   
     axis 0 -0 0   XYZ
    dof rx ry rz
    limits (-20.0 45.0)
           (-30.0 30.0)
           (-30.0 30.0)
  end
  begin
     id 16
     name head
     direction 0.0247488 0.997534 -0.0656813  
     length 2.20048  
     axis 0 -0 0   XYZ
    dof rx ry rz
    limits (-20.0 45.0)
           (-30.0 30.0)
           (-30.0 30.0)
  end
  begin
     id 17 
     name lclavicle
     direction 0.820559 0.567247 -0.0701026  
     length 4.09615  
     axis 0 -0 0   XYZ
    dof ry rz
    limits (-20.0 10.0)
           (0.0 20.0)
  end
  begin
     id 18 
     name lhumerus
     direction 0.999977 -0.0067566 -9.96392e-005   
     length 4.59333   
     axis -180 -30 -90   XYZ
    dof rx ry rz
    limits (-60.0 90.0)
           (-90.0 90.0)
           (-90.0 90.0)
  end
  begin
     id 19
     name lradius
     direction 1 -4.48982e-011 -2.53425e-027   
     length 2.81151   
     axis -180 -30 -90   XYZ
    dof rx
    limits (-10.0 170.0)
  end
  begin
     id 20
     name lwrist
     direction 1 -4.48939e-011 -7.39254e-028   
     length 1.40576   
     axis 2.56395e-016 90 90   XYZ
    dof ry
    limits (-180.0 0.0)
 end
  begin
     id 21 
     name lhand
     direction 1 -4.48939e-011 -1.47851e-027   
     length 0.895651   
     axis 9.43423e-016 90 90   XYZ
    dof rx rz
    limits (-90.0 90.0)
           (-45.0 45.0)
  end
  begin
     id 22 
     name lfingers
     direction 1 -4.48978e-011 -2.95702e-027   
     length 0.722097   
     axis 1.88685e-015 90 90   XYZ
    dof rx
    limits (0.0 90.0)
  end
  begin
     id 23
     name lthumb
     direction 0.707107 -6.34931e-011 0.707107   
     length 1.03679   
     axis -90 45 -9.86935e-015   XYZ
    dof rx rz
    limits (-45.0 45.0)
           (-45.0 45.0)
  end
  begin
     id 24 
     name rclavicle
     direction -0.831414 0.553102 -0.0531864   
     length 4.24872  
     axis 0 -0 0   XYZ 
    dof ry rz
    limits (-10.0 20.0)
           (-20.0 0.0)
  end
  begin
     id 25 
     name rhumerus
     direction -0.999916 -0.000939607 0.0129331  
     length 4.74834   
     axis -180 30 90   XYZ
    dof rx ry rz
    limits (-90.0 60.0)
           (-90.0 90.0)
           (-90.0 90.0)
  end
  begin
     id 26 
     name rradius
     direction -1 -4.48956e-011 -1.31752e-027   
     length 2.79907   
     axis -180 30 90   XYZ
    dof rx
    limits (-10.0 170.0)
  end
  begin
     id 27 
     name rwrist
     direction -1 -4.4897e-011 -7.39254e-028   
     length 1.39954   
     axis 2.56395e-016 -90 -90   XYZ
    dof ry
    limits (-180.0 0.0)
  end
  begin
     id 28
     name rhand
     direction -0.999997 -0.00250697 0.000800838   
     length 0.953304   
     axis 9.43423e-016 -90 -90   XYZ
    dof rx rz
    limits (-90.0 90.0)
           (-45.0 45.0)
  end
  begin
     id 29
     name rfingers
     direction -1 -4.48954e-011 -2.95702e-027   
     length 0.763342   
     axis 1.88685e-015 -90 -90   XYZ
    dof rx
    limits (0.0 90.0)
  end
  begin
     id 30
     name rthumb
     direction -0.709701 -0.00217037 0.7045   
     length 1.10115   
     axis -90 -45 9.86935e-015   XYZ
    dof rx rz
    limits (-45.0 45.0)
           (-45.0 45.0)
  end
:hierarchy
  begin
    root lhipjoint rhipjoint lowerback
    lhipjoint lfemur
    lfemur ltibia
    ltibia lfoot
    lfoot ltoes
    rhipjoint rfemur
    rfemur rtibia
    rtibia rfoot
    rfoot rtoes
    lowerback upperback
    upperback thorax
    thorax lowerneck lclavicle rclavicle
    lowerneck upperneck
    upperneck head
    lclavicle lhumerus
    lhumerus lradius
    lradius lwrist
    lwrist lhand lthumb
    lhand lfingers
    rclavicle rhumerus
    rhumerus rradius
    rradius rwrist
    rwrist rhand rthumb
    rhand rfingers
  end

#!OML:ASF G:\ViconDB\ViconDB\414\test\team2\shane.ASF
:FULLY-SPECIFIED
:DEGREES
48
root 5.27141 14.8334 -33.8576 12.5201 -10.3668 -5.18192
lowerback 16.1019 6.39739 0.683266
upperback 7.26793 8.33447 -1.97747
thorax -0.808576 4.17319 -3.79078
lowerneck -15.5055 -5.77879 -8.11713
upperneck 11.4526 -7.84379 11.7546
head 6.84833 -3.20111 4.29261
rclavicle 7.37491e-014 -4.05521e-014
rhumerus -7.74339 26.3002 -77.3503
rradius 83.3622
rwrist 33.7275
rhand -43.7517 -18.0376
rfingers 7.12502
rthumb -16.5821 -47.3491
lclavicle -1.37509e-013 4.24157e-014
lhumerus -64.6133 -27.3179 83.3672
lradius 54.4546
lwrist -10.5145
lhand -38.8751 5.19352
lfingers 7.12502
lthumb -11.8832 34.8363
rfemur 15.5558 -4.05724 12.3901
rtibia 40.51
rfoot 3.77825 9.29472
rtoes -13.4573
lfemur -43.5799 14.472 -16.7146
ltibia 72.8426
lfoot -43.2533 -2.73156
ltoes -7.06068
49
root 5.26842 14.8394 -33.5241 12.7268 -9.77658 -5.04162
lowerback 15.9391 6.05533 0.226221
upperback 7.37742 7.82533 -2.07812
thorax -0.689793 3.91404 -3.54359
lowerneck -15.5074 -5.59824 -8.24446
upperneck 11.4009 -7.64512 12.2535
head 6.83978 -3.07286 4.50314
rclavicle -1.37161e-014 7.55382e-015
rhumerus -10.4795 27.9633 -77.3313
rradius 79.9673
rwrist 34.2942
rhand -43.1293 -16.018
rfingers 7.12502
rthumb -15.9829 -45.3786
lclavicle -1.37509e-013 4.24157e-014
lhumerus -64.6133 -27.3179 83.3672
lradius 54.4546
lwrist -10.5145
lhand -38.8751 5.19352
lfingers 7.12502
lthumb -11.8832 34.8363
rfemur 12.755 -4.18002 12.2563
rtibia 45.9416
rfoot 6.38835 9.51618
rtoes -6.01734
lfemur -42.3734 14.3056 -16.9751
ltibia 72.6583
lfoot -44.1575 -1.80804
ltoes -8.14142
50
root 5.2576 14.8832 -33.1704 12.9224 -9.05064 -4.92612
lowerback 15.6421 5.72699 -0.37343
upperback 7.55084 7.32695 -1.97079
thorax -0.472602 3.65276 -2.98618
lowerneck -15.5542 -5.43939 -8.56358
upperneck 11.2921 -7.41347 12.6846
head 6.81942 -2.94262 4.72652
rclavicle -9.18385e-014 3.45885e-014
rhumerus -13.3188 29.2994 -77.5882
rradius 76.6017
rwrist 34.6633
rhand -41.5549 -13.9644
rfingers 7.12502
rthumb -14.4663 -43.4401
lclavicle -1.37509e-013 4.24157e-014
lhumerus -64.6133 -27.3179 83.3672
lradius 54.4546
lwrist -10.5145
lhand -38.8751 5.19352
lfingers 7.12502
lthumb -11.8832 34.8363
rfemur 10.0085 -3.74227 12.7349
rtibia 51.1676
rfoot 5.01387 7.9446
rtoes -3.93738
lfemur -40.753 13.6316 -16.8223
ltibia 72.2156
lfoot -45.0954 -2.46221
ltoes -8.52781
51
root 5.24839 14.884 -32.8306 13.1317 -8.31728 -4.86174
lowerback 15.3595 5.33879 -0.744999
upperback 7.69105 6.7835 -1.94763
thorax -0.248801 3.37527 -2.64016
lowerneck -15.7062 -5.30366 -8.86928
upperneck 11.2512 -7.23451 13.2331
head 6.84833 -2.82259 4.98094
rclavicle -1.33186e-014 2.94201e-014
rhumerus -16.3046 30.2154 -78.2617
rradius 73.1047
rwrist 34.7426
rhand -40.2396 -12.3623
rfingers 7.12502
rthumb -13.1987 -41.9245
lclavicle -1.37509e-013 4.24157e-014
lhumerus -64.6133 -27.3179 83.3672
lradius 54.4546
lwrist -10.5145
lhand -38.8751 5.19352
lfingers 7.12502
lthumb -11.8832 34.8363
rfemur 7.05067 -4.56769 12.4622
rtibia 56.4829
rfoot 1.22191 6.61868
rtoes -7.00453
lfemur -39.4159 13.524 -16.7832
ltibia 71.8978
lfoot -45.892 -2.78169
ltoes -9.94512
52
root 5.24331 14.8881 -32.4863 13.3743 -7.56732 -4.80557
lowerback 15.0281 4.97415 -1.06244
upperback 7.76047 6.28277 -1.86602
thorax -0.0657223 3.11782 -2.27242
lowerneck -15.6314 -5.19632 -9.24482
upperneck 11.0832 -7.07301 13.7395
head 6.79882 -2.72856 5.23297
rclavicle -8.50798e-014 2.78299e-014
rhumerus -19.6257 30.803 -79.1283
rradius 69.6338
rwrist 34.2508
rhand -38.8871 -10.4574
rfingers 7.12502
rthumb -11.8948 -40.0996
lclavicle -8.50798e-014 2.78299e-014
lhumerus -48.2172 -26.5668 90.2559
lradius 62.9656
lwrist -12.3356
lhand -45.6252 5.51518
lfingers 7.12502
lthumb -18.3851 34.6664
rfemur 3.91028 -4.73734 12.6478
rtibia 61.6213
rfoot -2.07348 4.7878
rtoes -10.5049
lfemur -38.0289 13.153 -16.7069
ltibia 71.4546
lfoot -46.5598 -2.86344
ltoes -11.0548
53
root 5.23034 14.8959 -32.157 13.7318 -6.31723 -4.56188
lowerback 14.7562 4.44442 -1.43461
upperback 7.812 5.56157 -1.7666
thorax 0.0631517 2.74835 -1.8344
lowerneck -15.8277 -5.1062 -9.50509
upperneck 10.9977 -6.93682 14.1653
head 6.81686 -2.63599 5.43457
rclavicle -1.55052e-014 2.62396e-014
rhumerus -22.803 30.9613 -80.1112
rradius 65.6529
rwrist 34.5913
rhand -38.2885 -9.55702
rfingers 7.12502
rthumb -11.3175 -39.2317
lclavicle -1.55052e-014 2.62396e-014
lhumerus -44.3009 -27.1125 91.1747
lradius 62.7638
lwrist -13.5656
lhand -46.4074 5.05767
lfingers 7.12502
lthumb -19.1375 34.1361
rfemur 0.478393 -5.81112 12.6363
rtibia 66.6619
rfoot -4.18682 3.86902
rtoes -9.91735
lfemur -36.9653 12.8779 -16.7788
ltibia 70.9979
lfoot -47.0948 -3.34908
ltoes -12.9736
